<svg xmlns="http://www.w3.org/2000/svg" xmlns:svg="http://www.w3.org/2000/svg" id="svg8" width="22" height="22" version="1.1" viewBox="0 0 5.821 5.821"><metadata id="metadata5"/><g id="layer1" transform="translate(0,-291.17915)"><path style="color:#000;clip-rule:nonzero;display:inline;overflow:visible;visibility:visible;opacity:1;isolation:auto;mix-blend-mode:normal;color-interpolation:sRGB;color-interpolation-filters:linearRGB;solid-color:#000;solid-opacity:1;fill:#333;fill-opacity:1;fill-rule:nonzero;stroke:none;stroke-width:1.99999988;stroke-linecap:butt;stroke-linejoin:miter;stroke-miterlimit:4;stroke-dasharray:none;stroke-dashoffset:0;stroke-opacity:1;color-rendering:auto;image-rendering:auto;shape-rendering:auto;text-rendering:auto;enable-background:accumulate" id="rect4524" d="M 6.9101562 2.4082031 C 3.1105656 2.4082031 -5.9211895e-16 5.5081643 0 9.3027344 C 0 13.097342 3.1105656 16.197266 6.9101562 16.197266 C 8.2869348 16.197266 9.5698699 15.787508 10.650391 15.087891 L 15.162109 19.587891 L 16.636719 18.115234 L 12.214844 13.707031 C 13.214837 12.510659 13.818359 10.974238 13.818359 9.3027344 C 13.818359 5.5081643 10.709747 2.4082031 6.9101562 2.4082031 z M 6.9101562 4.9101562 C 9.3624717 4.9101562 11.324219 6.8631249 11.324219 9.3027344 C 11.324219 11.742382 9.3624717 13.695312 6.9101562 13.695312 C 4.4578408 13.695312 2.5019531 11.742382 2.5019531 9.3027344 C 2.5019531 6.8631249 4.4578408 4.9101562 6.9101562 4.9101562 z" transform="matrix(0.26458333,0,0,0.26458333,0,291.17915)"/><path style="color:#000;clip-rule:nonzero;display:inline;overflow:visible;visibility:visible;opacity:1;isolation:auto;mix-blend-mode:normal;color-interpolation:sRGB;color-interpolation-filters:linearRGB;solid-color:#000;solid-opacity:1;fill:#333;fill-opacity:1;fill-rule:nonzero;stroke:none;stroke-width:.63466448;stroke-linecap:butt;stroke-linejoin:miter;stroke-miterlimit:4;stroke-dasharray:none;stroke-dashoffset:0;stroke-opacity:1;color-rendering:auto;image-rendering:auto;shape-rendering:auto;text-rendering:auto;enable-background:accumulate" id="path4491" d="m 5.6074138,294.49889 -1.0836583,-1.87695 2.1673165,0 z" transform="matrix(0.99422295,0,0,0.68955299,-0.83134947,91.755588)"/></g></svg>